<?xml version="1.0" encoding="UTF-8"?><svg id="Ebene_2" xmlns="http://www.w3.org/2000/svg" viewBox="0 0 290.94 504"><defs><style>.cls-1{fill:#fff;}.cls-2{fill:#1d1d1b;}</style></defs><g id="Ebene_1-2"><path class="cls-2" d="M289.64,144C279.5,79.99,223.34-.08,145.64,0,67.07,.08,13.45,82.06,1.64,144c-4.11,21.54-3.91,44.58,43,171,46.75,125.99,70.61,188.98,94,189,18.74,.02,27.93-25.7,95.54-186.03,52.17-123.72,60.61-141.41,55.46-173.97Z"/><g><path class="cls-1" d="M153.66,234.26c-9.93,0-19.87,.1-29.79-.09-1.76-.03-3.51-1.26-5.26-1.94,.63-1.34,1.34-2.64,1.85-4.02,.33-.89,.54-1.9,.54-2.85,.03-35.21,.04-70.42-.05-105.63,0-1.29-.84-2.71-1.63-3.82-1.61-2.25-.88-4.38,1.9-4.86,.73-.13,1.51-.05,2.26-.05,20.11,0,40.23-.03,60.34,.06,1.61,0,3.22,.85,4.83,1.3-.48,1.52-1,3.03-1.42,4.56-.29,1.05-.64,2.15-.64,3.22-.04,34.96-.04,69.92,0,104.87,0,1.16,.54,2.34,.89,3.49,.41,1.33,1.63,3.2,1.16,3.83-.79,1.05-2.63,1.8-4.04,1.82-10.31,.15-20.62,.08-30.93,.08v.02Z"/><path class="cls-1" d="M181.74,109.15h-55.83c.38-3.8,2.51-6.44,4.61-9.11,1.33-1.7,2.43-3.58,3.79-5.24,.55-.68,1.54-1.41,2.33-1.42,11.16-.1,22.33-.09,33.49-.04,.79,0,1.9,.34,2.33,.92,2.54,3.47,4.96,7.03,7.32,10.62,.73,1.12,1.15,2.45,1.96,4.26Z"/><path class="cls-1" d="M116.1,97.25c-1.63,8.3-7.08,13.06-14.98,13.26-8.21,.21-12.8-4.11-15.52-14.6-9.22-1.33-14.06-6.73-14.75-15.63-.62-7.94,4.31-13.12,14.81-16.48,3.01-10.62,8.01-14.99,16.54-14.36,6.12,.45,13.11,5.22,13.93,14.58-1.62-1.06-3.32-1.54-3.56-2.42-1.88-7.09-8.65-9.99-13.18-9.06-6.18,1.27-10.18,4.91-10.27,12.7,0,.61,0,1.22,0,1.82-10.05,.71-15.18,4.98-15.07,13.67,.09,7.24,5.1,11,14.58,11.75,.55,2.77,.69,5.72,1.74,8.28,1.92,4.66,5.95,6.56,10.83,6.54,5.3-.03,9.5-2.8,11.03-7.97,.72-2.44,1.66-2.68,3.88-2.07Z"/><path class="cls-1" d="M141.24,90.28v-4.14c1.18-.28,2.33-.55,3.91-.93v-10.57c5.4,.56,10.34,.98,15.24,1.68,.68,.1,1.55,1.52,1.65,2.41,.24,2.09,.08,4.23,.08,6.65,3.33,0,4.53,1.59,3.51,4.91h-24.39Z"/><path class="cls-1" d="M135.39,84.23v-8.63c2.96,1.91,4.97,3.2,6.98,4.5-2.04,1.21-4.08,2.42-6.98,4.13Z"/><path class="cls-1" d="M133.03,75.81c-.93,.79-1.45,1.52-1.76,1.44-2.15-.53-4.28-1.18-6.36-1.94-.2-.07-.04-1.1-.05-1.69,1.48,.04,3.01-.13,4.43,.2,1.19,.28,2.25,1.16,3.75,1.98Z"/><path class="cls-1" d="M132.77,84.6c-.72,.37-1.38,.88-2.11,1.06-1.84,.43-3.72,.72-5.6,1-.07,.01-.45-.85-.34-.95,.83-.8,1.65-1.9,2.66-2.18,1.53-.41,3.23-.24,4.85-.24,.13,0,.26,.63,.53,1.32Z"/><path class="cls-1" d="M102.42,95.2c.5-1.63,.55-3.08,1.07-3.28,2.01-.75,4.17-1.09,6.28-1.59-.21,.9-.15,2.34-.67,2.59-1.83,.88-3.85,1.36-6.68,2.27Z"/><path class="cls-1" d="M102.73,64.6l7.71,3.26,.08,1.16c-.97,.1-2.02,.48-2.9,.24-1.99-.53-5,.06-4.89-4.66Z"/><path class="cls-1" d="M127.91,81.48c-.87,0-1.79,.18-2.58-.07-.52-.16-1-.9-1.17-1.48-.07-.25,.65-.96,1.11-1.07,.83-.19,1.77-.26,2.58-.05,1.32,.35,2.57,.96,3.85,1.46l-3.63,1.66-.16-.45Z"/><path class="cls-1" d="M113.62,70.51c.94-.32,1.88-.91,2.82-.9,.93,0,1.95,.45,2.74,.99,.72,.49,1.18,1.36,1.76,2.06-.82,.2-1.71,.7-2.44,.53-1.53-.37-2.98-1.09-4.47-1.67l-.41-.99Z"/><path class="cls-1" d="M105.31,78.79c.74,0,1.54-.16,2.22,.05,.58,.17,1.03,.77,1.53,1.17-.47,.46-.9,1.25-1.43,1.32-1.34,.2-2.75,.26-4.07,.02-.86-.16-1.6-.94-2.39-1.44,.76-.38,1.49-.86,2.29-1.11,.57-.18,1.23-.03,1.85-.03v.02Z"/><path class="cls-1" d="M120.75,80.08c-1.07,.46-2.17,1.37-3.2,1.29-1.71-.13-3.37-.9-5.05-1.4,1.62-.4,3.23-.9,4.87-1.16,.94-.15,1.95,.08,2.93,.13l.45,1.13Z"/><path class="cls-1" d="M115.63,91.16l-1.72-1.87c1.81-.91,3.58-1.91,5.45-2.64,.37-.14,1.14,.78,1.73,1.21-1.7,1.03-3.4,2.05-5.47,3.3Z"/></g></g></svg>