<?xml version="1.0" standalone="no"?>
<!DOCTYPE svg PUBLIC "-//W3C//DTD SVG 20010904//EN"
 "http://www.w3.org/TR/2001/REC-SVG-20010904/DTD/svg10.dtd">
<svg version="1.0" xmlns="http://www.w3.org/2000/svg"
 width="300.000000pt" height="300.000000pt" viewBox="0 0 300.000000 300.000000"
 preserveAspectRatio="xMidYMid meet">
<metadata>
Created by potrace 1.14, written by Peter Selinger 2001-2017
</metadata>
<g transform="translate(0.000000,300.000000) scale(0.100000,-0.100000)"
fill="#000000" stroke="none">
<path d="M22 2990 l-22 -9 0 -1091 0 -1090 1500 0 1500 0 0 1090 c0 1067 0
1090 -19 1100 -25 13 -2926 13 -2959 0z m1318 -437 c0 -10 9 -187 20 -393 25
-481 25 -470 0 -470 -12 0 -21 8 -24 23 -3 12 -12 180 -21 372 -8 193 -18 380
-22 418 l-6 67 27 0 c18 0 26 -5 26 -17z m-210 -167 c0 -2 -101 -227 -225
-501 -124 -274 -224 -499 -222 -501 1 -1 96 -13 210 -25 l207 -22 0 -129 0
-128 -494 0 -494 0 249 459 c137 253 252 466 255 474 4 11 -30 20 -171 43 -97
15 -180 31 -186 35 -6 3 -14 53 -19 110 -5 57 -12 123 -15 147 l-5 42 455 0
c250 0 455 -2 455 -4z m1548 -15 c89 -45 143 -134 164 -264 26 -171 -47 -330
-186 -403 l-54 -28 144 -288 c79 -158 144 -290 144 -293 0 -3 -74 -5 -163 -5
l-164 0 -154 240 c-85 131 -157 239 -160 240 -3 0 -14 -107 -25 -237 l-19
-238 -152 -3 -153 -3 0 424 c0 233 -3 526 -7 650 l-6 227 377 0 c352 0 379 -1
414 -19z"/>
<path d="M537 1659 c-134 -264 -176 -354 -167 -363 8 -8 15 -6 26 9 28 38 353
692 347 699 -3 3 -11 6 -17 6 -6 0 -91 -158 -189 -351z"/>
<path d="M2325 2085 c-44 -23 -65 -53 -65 -92 0 -96 156 -139 232 -63 51 52
31 124 -43 154 -49 20 -86 20 -124 1z"/>
<path d="M1993 1818 c4 -145 7 -332 7 -415 0 -143 1 -153 19 -153 18 0 19 13
14 403 -2 221 -6 408 -8 415 -3 6 -12 12 -21 12 -16 0 -17 -20 -11 -262z"/>
</g>
</svg>
