<?xml version="1.0" standalone="no"?>
<!DOCTYPE svg PUBLIC "-//W3C//DTD SVG 20010904//EN"
 "http://www.w3.org/TR/2001/REC-SVG-20010904/DTD/svg10.dtd">
<svg version="1.0" xmlns="http://www.w3.org/2000/svg"
 width="1008.000000pt" height="1008.000000pt" viewBox="0 0 1008.000000 1008.000000"
 preserveAspectRatio="xMidYMid meet">
<metadata>
Created by potrace 1.14, written by Peter Selinger 2001-2017
</metadata>
<g transform="translate(0.000000,1008.000000) scale(0.100000,-0.100000)"
fill="#000000" stroke="none">
<path d="M4857 10074 c-2 -2 -30 -7 -63 -10 -60 -5 -67 -6 -164 -24 -86 -16
-92 -17 -140 -30 -25 -7 -47 -12 -50 -12 -3 -1 -30 -10 -60 -20 -30 -11 -62
-21 -70 -23 -8 -2 -16 -4 -17 -5 -2 -2 -6 -3 -10 -5 -5 -1 -21 -7 -36 -13 -16
-7 -30 -12 -32 -12 -5 0 -99 -42 -185 -83 -115 -55 -401 -231 -420 -258 -3 -4
-28 -24 -56 -45 -81 -61 -158 -130 -278 -249 -145 -144 -192 -197 -349 -395
-7 -9 -25 -35 -42 -60 -16 -25 -37 -53 -45 -63 -8 -9 -50 -72 -92 -140 -43
-67 -81 -126 -86 -132 -9 -12 -50 -89 -92 -171 -17 -34 -34 -65 -38 -69 -4 -4
-7 -10 -7 -13 -1 -4 -10 -25 -22 -47 -38 -74 -123 -267 -123 -281 0 -8 -4 -14
-10 -14 -5 0 -9 -3 -8 -7 2 -7 -34 -114 -65 -193 -6 -14 -11 -29 -13 -35 -1
-5 -18 -62 -37 -125 -19 -63 -46 -167 -60 -230 -47 -209 -52 -252 -51 -430 0
-151 7 -272 18 -308 3 -9 7 -35 11 -57 7 -49 35 -195 49 -260 11 -48 68 -267
87 -335 11 -41 29 -104 39 -140 10 -36 28 -96 40 -135 12 -38 28 -95 37 -125
8 -30 19 -61 25 -67 6 -7 8 -13 5 -13 -3 0 3 -26 14 -57 11 -32 22 -65 24 -73
2 -8 18 -58 35 -110 18 -52 33 -99 35 -105 1 -5 5 -17 8 -25 9 -24 82 -235
117 -340 17 -52 35 -104 40 -115 4 -11 13 -36 20 -55 7 -19 16 -44 20 -55 5
-11 36 -99 70 -195 33 -96 66 -186 72 -200 6 -14 12 -29 14 -35 3 -16 54 -158
64 -180 5 -11 27 -72 50 -135 23 -63 46 -124 51 -135 4 -11 18 -47 29 -80 12
-33 26 -69 31 -80 5 -11 13 -33 18 -50 5 -16 19 -55 31 -85 12 -30 25 -66 30
-80 4 -14 14 -38 20 -55 7 -16 14 -34 15 -40 2 -5 14 -39 28 -75 52 -134 107
-286 107 -298 0 -6 3 -12 8 -12 4 0 13 -19 20 -43 11 -36 39 -111 67 -182 5
-11 9 -22 10 -25 1 -3 5 -14 9 -25 5 -11 21 -56 38 -100 31 -84 33 -89 67
-172 12 -28 21 -59 21 -67 0 -9 4 -16 9 -16 5 0 12 -12 15 -26 7 -25 84 -227
111 -289 7 -16 29 -73 49 -125 20 -52 41 -104 46 -115 31 -66 110 -262 110
-272 0 -7 4 -13 8 -13 4 0 14 -20 21 -45 7 -25 17 -45 22 -45 5 0 9 -6 9 -14
0 -7 16 -49 36 -92 20 -44 45 -99 56 -124 39 -86 188 -380 213 -420 14 -22 25
-42 25 -45 0 -3 20 -36 45 -75 25 -39 45 -72 45 -75 0 -5 47 -68 104 -140 44
-56 143 -150 174 -166 15 -8 29 -16 32 -19 17 -19 95 -37 156 -36 122 2 231
76 332 226 20 30 39 57 42 60 7 7 28 41 40 65 6 11 26 47 45 80 33 55 235 461
235 470 0 2 25 56 55 120 30 65 55 119 55 122 0 3 14 35 31 71 29 62 50 110
54 122 4 11 24 58 43 100 68 150 82 182 82 186 0 4 12 34 50 119 5 11 23 51
39 88 17 38 31 73 31 78 0 5 4 17 10 27 5 9 16 33 24 52 8 19 26 61 40 92 14
31 26 59 26 62 0 4 9 25 19 49 35 77 81 185 81 191 0 3 13 34 29 68 15 35 38
88 51 118 12 30 31 73 41 95 9 22 44 105 77 185 33 80 69 166 81 193 11 26 20
48 19 50 -1 1 5 13 12 27 8 14 15 27 15 30 0 5 65 160 90 215 7 17 22 53 33
80 11 28 28 68 38 90 10 22 18 42 19 45 1 3 7 19 14 35 8 17 17 39 22 50 4 11
17 40 27 65 55 125 105 246 106 255 1 5 12 29 24 52 12 24 20 43 16 43 -4 0 0
7 7 16 7 9 14 21 15 28 2 11 31 80 60 140 8 16 14 34 14 40 0 6 9 28 20 49 11
20 20 44 20 52 0 8 4 15 10 15 5 0 9 3 8 8 -1 7 11 41 31 87 22 50 41 95 66
155 14 36 34 81 43 100 9 19 17 40 18 45 1 6 13 35 27 65 14 30 29 68 32 83 4
15 10 27 14 27 4 0 8 6 8 13 0 6 7 28 16 47 20 44 168 401 171 415 2 6 8 21
13 35 25 59 127 320 150 385 14 38 29 79 33 90 4 11 9 25 10 30 1 6 11 33 22
60 11 28 21 58 23 67 2 9 8 25 13 35 6 10 11 23 11 28 1 6 7 28 13 50 6 22 12
42 13 45 0 3 9 32 19 65 10 33 19 67 21 75 2 8 8 35 14 60 5 25 12 59 15 75 3
17 8 41 11 55 27 134 26 460 -2 585 -2 11 -7 36 -9 55 -3 19 -9 51 -14 70 -5
19 -12 53 -16 75 -3 22 -8 44 -12 49 -3 5 -6 19 -8 30 -1 12 -15 62 -29 111
-86 292 -196 551 -354 835 -78 141 -264 424 -296 450 -8 7 -15 16 -15 21 0 10
-27 44 -52 68 -10 8 -18 18 -18 22 0 4 -20 28 -45 53 -25 26 -45 51 -45 55 0
7 -268 281 -276 281 -2 0 -12 8 -22 18 -157 150 -408 321 -642 437 -162 80
-402 168 -489 180 -14 2 -33 6 -41 9 -21 8 -76 18 -160 30 -25 4 -61 9 -80 12
-42 7 -437 14 -443 8z"/>
</g>
</svg>
